<svg width="35" height="35" viewBox="0 0 35 35" fill="none" xmlns="http://www.w3.org/2000/svg">
<circle cx="17.5" cy="17.5" r="17.5" fill="#3974AA"/>
<path d="M14.344 24.704C14.344 24.56 14.328 24.496 14.264 24.496L13.896 24.672C13.896 24.592 13.848 24.544 13.768 24.512L13.64 24.496C13.528 24.496 13.48 24.512 13.32 24.608C13.272 24.512 13.208 24.4 13.16 24.304C12.744 23.504 12.312 22.304 12.12 21.776C12.024 21.504 11.928 20.944 11.816 20.096C11.944 20.176 12.04 20.208 12.088 20.208C12.152 20.208 12.232 20.096 12.296 19.872C12.328 19.92 12.392 19.936 12.472 19.936C12.52 19.936 12.584 19.92 12.616 19.872L12.872 19.488L13.16 19.584H13.176C13.208 19.584 13.256 19.536 13.336 19.488C13.416 19.44 13.48 19.408 13.528 19.408L13.576 19.424C13.832 19.552 14.008 19.776 14.088 20.128C14.28 20.944 14.456 21.344 14.664 21.344C14.84 21.344 15.08 21.136 15.336 20.736C15.592 20.336 15.848 19.792 16.136 19.136C16.152 19.264 16.168 19.328 16.2 19.328C16.296 19.328 16.536 18.768 17.128 17.824C18.008 16.4 20.184 13.664 20.744 13.28C21.16 12.992 21.48 12.72 21.704 12.48C21.672 12.64 21.64 12.752 21.64 12.8C21.64 12.848 21.672 12.864 21.704 12.864L22.152 12.64V12.704C22.152 12.784 22.168 12.832 22.216 12.832C22.28 12.832 22.536 12.576 22.568 12.48L22.536 12.704L23.08 12.384L22.952 12.672C23.112 12.56 23.24 12.496 23.32 12.496C23.4 12.496 23.448 12.624 23.448 12.704C23.448 12.832 23.336 13.008 23.16 13.232C22.968 13.488 22.488 13.984 21.048 15.632C20.424 16.336 17.656 20.096 17.128 20.992L16.136 22.672C15.704 23.392 15.432 23.856 15.288 24.032C15.144 24.208 14.968 24.384 14.76 24.544L14.616 24.464L14.488 24.544L14.344 24.704Z" fill="#1F1229"/>
</svg>
