<svg width="55" height="37" viewBox="0 0 55 37" fill="none" xmlns="http://www.w3.org/2000/svg">
<path d="M27.5 0C15 0 4.325 7.67133 0 18.5C4.325 29.3287 15 37 27.5 37C40 37 50.675 29.3287 55 18.5C50.675 7.67133 40 0 27.5 0ZM27.5 30.8333C20.6 30.8333 15 25.308 15 18.5C15 11.692 20.6 6.16667 27.5 6.16667C34.4 6.16667 40 11.692 40 18.5C40 25.308 34.4 30.8333 27.5 30.8333ZM27.5 11.1C23.35 11.1 20 14.4053 20 18.5C20 22.5947 23.35 25.9 27.5 25.9C31.65 25.9 35 22.5947 35 18.5C35 14.4053 31.65 11.1 27.5 11.1Z" fill="#38194E" fill-opacity="0.8"/>
</svg>
