<svg width="108" height="36" viewBox="0 0 108 36" fill="none" xmlns="http://www.w3.org/2000/svg">
<path d="M23.696 18.404C23.696 19.076 23.654 19.776 23.57 20.504H7.316C7.428 21.96 7.89 23.08 8.702 23.864C9.542 24.62 10.564 24.998 11.768 24.998C13.56 24.998 14.806 24.242 15.506 22.73H23.15C22.758 24.27 22.044 25.656 21.008 26.888C20 28.12 18.726 29.086 17.186 29.786C15.646 30.486 13.924 30.836 12.02 30.836C9.724 30.836 7.68 30.346 5.888 29.366C4.096 28.386 2.696 26.986 1.688 25.166C0.68 23.346 0.176 21.218 0.176 18.782C0.176 16.346 0.666 14.218 1.646 12.398C2.654 10.578 4.054 9.178 5.846 8.198C7.638 7.218 9.696 6.728 12.02 6.728C14.288 6.728 16.304 7.204 18.068 8.156C19.832 9.108 21.204 10.466 22.184 12.23C23.192 13.994 23.696 16.052 23.696 18.404ZM16.346 16.514C16.346 15.282 15.926 14.302 15.086 13.574C14.246 12.846 13.196 12.482 11.936 12.482C10.732 12.482 9.71 12.832 8.87 13.532C8.058 14.232 7.554 15.226 7.358 16.514H16.346ZM45.5449 12.776V18.74H27.0649V12.776H45.5449ZM72.8481 35.54L69.0681 30.458C67.9481 30.682 66.8561 30.794 65.7921 30.794C63.0201 30.794 60.4721 30.15 58.1481 28.862C55.8521 27.574 54.0181 25.782 52.6461 23.486C51.3021 21.162 50.6301 18.558 50.6301 15.674C50.6301 12.79 51.3021 10.2 52.6461 7.904C54.0181 5.608 55.8521 3.816 58.1481 2.528C60.4721 1.24 63.0201 0.595999 65.7921 0.595999C68.5641 0.595999 71.0981 1.24 73.3941 2.528C75.7181 3.816 77.5381 5.608 78.8541 7.904C80.1981 10.2 80.8701 12.79 80.8701 15.674C80.8701 18.194 80.3521 20.504 79.3161 22.604C78.3081 24.676 76.8941 26.398 75.0741 27.77L81.5421 35.54H72.8481ZM57.9801 15.674C57.9801 18.278 58.6801 20.364 60.0801 21.932C61.5081 23.472 63.4121 24.242 65.7921 24.242C68.1441 24.242 70.0201 23.458 71.4201 21.89C72.8481 20.322 73.5621 18.25 73.5621 15.674C73.5621 13.07 72.8481 10.998 71.4201 9.458C70.0201 7.89 68.1441 7.106 65.7921 7.106C63.4121 7.106 61.5081 7.876 60.0801 9.416C58.6801 10.956 57.9801 13.042 57.9801 15.674ZM107.04 18.404C107.04 19.076 106.998 19.776 106.914 20.504H90.6598C90.7718 21.96 91.2338 23.08 92.0458 23.864C92.8858 24.62 93.9078 24.998 95.1118 24.998C96.9038 24.998 98.1498 24.242 98.8498 22.73H106.494C106.102 24.27 105.388 25.656 104.352 26.888C103.344 28.12 102.07 29.086 100.53 29.786C98.9898 30.486 97.2678 30.836 95.3638 30.836C93.0678 30.836 91.0238 30.346 89.2318 29.366C87.4398 28.386 86.0398 26.986 85.0318 25.166C84.0238 23.346 83.5198 21.218 83.5198 18.782C83.5198 16.346 84.0098 14.218 84.9898 12.398C85.9978 10.578 87.3978 9.178 89.1898 8.198C90.9818 7.218 93.0398 6.728 95.3638 6.728C97.6318 6.728 99.6478 7.204 101.412 8.156C103.176 9.108 104.548 10.466 105.528 12.23C106.536 13.994 107.04 16.052 107.04 18.404ZM99.6898 16.514C99.6898 15.282 99.2698 14.302 98.4298 13.574C97.5898 12.846 96.5398 12.482 95.2798 12.482C94.0758 12.482 93.0538 12.832 92.2138 13.532C91.4018 14.232 90.8978 15.226 90.7018 16.514H99.6898Z" fill="black" />
</svg>
