<svg width="842" height="934" viewBox="0 0 842 934" fill="none" xmlns="http://www.w3.org/2000/svg">
<g filter="url(#filter0_d_311_392)">
<rect x="509" y="505" width="291.58" height="392.999" rx="39" fill="#189FCA"/>
</g>
<path d="M588.16 629.417C584.824 629.417 582.162 628.023 580.174 625.235C578.186 622.447 577.192 619.271 577.192 615.707C577.192 612.142 578.186 608.966 580.174 606.178C582.162 603.39 584.824 601.996 588.16 601.996C591.496 601.996 594.158 603.39 596.146 606.178C598.134 608.966 599.128 612.142 599.128 615.707C599.128 619.271 598.134 622.447 596.146 625.235C594.158 628.023 591.496 629.417 588.16 629.417ZM563.618 627.086L559.711 625.784C560.991 621.442 561.939 617.066 562.556 612.656C563.173 608.246 563.481 603.779 563.481 599.254C563.481 594.73 563.173 590.251 562.556 585.818C561.939 581.385 560.991 576.998 559.711 572.656L563.618 571.354C564.944 575.924 565.938 580.528 566.6 585.167C567.263 589.805 567.594 594.501 567.594 599.254C567.594 603.961 567.263 608.634 566.6 613.273C565.938 617.912 564.944 622.516 563.618 627.086ZM607.217 627.086C605.892 622.516 604.898 617.912 604.235 613.273C603.573 608.634 603.241 603.961 603.241 599.254C603.241 594.501 603.573 589.805 604.235 585.167C604.898 580.528 605.892 575.924 607.217 571.354L611.125 572.656C609.845 576.998 608.897 581.385 608.28 585.818C607.663 590.251 607.354 594.73 607.354 599.254C607.354 603.779 607.663 608.246 608.28 612.656C608.897 617.066 609.845 621.442 611.125 625.784L607.217 627.086ZM588.16 625.304C590.354 625.304 592.045 624.321 593.233 622.356C594.421 620.391 595.015 618.174 595.015 615.707C595.015 613.239 594.421 611.022 593.233 609.057C592.045 607.092 590.354 606.109 588.16 606.109C585.966 606.109 584.275 607.092 583.087 609.057C581.899 611.022 581.305 613.239 581.305 615.707C581.305 618.174 581.899 620.391 583.087 622.356C584.275 624.321 585.966 625.304 588.16 625.304ZM586.035 620.642C586.446 621.008 586.926 621.191 587.474 621.191C588.023 621.191 588.503 620.985 588.914 620.574C589.554 619.934 590.045 619.191 590.388 618.346C590.731 617.5 590.902 616.621 590.902 615.707C590.902 614.793 590.742 613.913 590.422 613.067C590.102 612.222 589.622 611.479 588.983 610.839C588.617 610.428 588.149 610.222 587.577 610.222C587.006 610.222 586.515 610.405 586.103 610.771C585.692 611.136 585.475 611.616 585.452 612.21C585.429 612.805 585.601 613.307 585.966 613.719L586.378 614.301C586.652 614.69 586.789 615.158 586.789 615.707C586.789 616.255 586.652 616.723 586.378 617.112L585.966 617.695C585.555 618.106 585.361 618.609 585.384 619.203C585.406 619.797 585.624 620.277 586.035 620.642ZM582.676 596.512C579.34 596.512 576.678 595.118 574.69 592.33C572.702 589.543 571.708 586.366 571.708 582.802C571.708 579.237 572.702 576.061 574.69 573.273C576.678 570.485 579.34 569.091 582.676 569.091C586.012 569.091 588.674 570.485 590.662 573.273C592.65 576.061 593.644 579.237 593.644 582.802C593.644 586.366 592.65 589.543 590.662 592.33C588.674 595.118 586.012 596.512 582.676 596.512ZM582.676 592.399C584.869 592.399 586.56 591.416 587.749 589.451C588.937 587.486 589.531 585.27 589.531 582.802C589.531 580.334 588.937 578.117 587.749 576.152C586.56 574.187 584.869 573.204 582.676 573.204C580.482 573.204 578.791 574.187 577.603 576.152C576.415 578.117 575.821 580.334 575.821 582.802C575.821 585.27 576.415 587.486 577.603 589.451C578.791 591.416 580.482 592.399 582.676 592.399ZM584.732 587.737C585.144 587.372 585.361 586.892 585.384 586.298C585.406 585.704 585.235 585.201 584.869 584.79C584.641 584.515 584.447 584.207 584.287 583.864C584.127 583.521 584.047 583.167 584.047 582.802C584.047 582.436 584.127 582.082 584.287 581.739C584.447 581.396 584.641 581.088 584.869 580.814C585.235 580.402 585.418 579.911 585.418 579.34C585.418 578.769 585.212 578.277 584.801 577.866C584.39 577.5 583.91 577.318 583.361 577.318C582.813 577.318 582.333 577.523 581.922 577.934C581.282 578.574 580.791 579.317 580.448 580.162C580.105 581.008 579.934 581.888 579.934 582.802C579.934 583.716 580.094 584.595 580.414 585.441C580.733 586.286 581.213 587.029 581.853 587.669C582.264 588.08 582.744 588.286 583.293 588.286C583.841 588.286 584.321 588.103 584.732 587.737Z" fill="white"/>
<path d="M751.236 552.893L750.459 556.526H753.231V558.626H750.018L749.178 562.511H746.889L747.729 558.626H743.613L742.773 562.511H740.484L741.324 558.626H738.069V556.526H741.765L742.542 552.893H739.308V550.793H742.983L743.802 546.971H746.091L745.272 550.793H749.388L750.207 546.971H752.496L751.677 550.793H754.47V552.893H751.236ZM748.947 552.893H744.831L744.054 556.526H748.17L748.947 552.893ZM756.949 550.982C757.033 549.68 757.53 548.665 758.44 547.937C759.364 547.209 760.54 546.845 761.968 546.845C762.948 546.845 763.795 547.02 764.509 547.37C765.223 547.72 765.762 548.196 766.126 548.798C766.49 549.4 766.672 550.079 766.672 550.835C766.672 551.703 766.441 552.445 765.979 553.061C765.517 553.677 764.964 554.09 764.32 554.3V554.384C765.146 554.636 765.79 555.098 766.252 555.77C766.714 556.428 766.945 557.275 766.945 558.311C766.945 559.137 766.756 559.872 766.378 560.516C766 561.16 765.44 561.671 764.698 562.049C763.956 562.413 763.067 562.595 762.031 562.595C760.519 562.595 759.273 562.21 758.293 561.44C757.327 560.656 756.809 559.536 756.739 558.08H759.049C759.105 558.822 759.392 559.431 759.91 559.907C760.428 560.369 761.128 560.6 762.01 560.6C762.864 560.6 763.522 560.369 763.984 559.907C764.446 559.431 764.677 558.822 764.677 558.08C764.677 557.1 764.362 556.407 763.732 556.001C763.116 555.581 762.164 555.371 760.876 555.371H760.33V553.397H760.897C762.031 553.383 762.892 553.194 763.48 552.83C764.082 552.466 764.383 551.892 764.383 551.108C764.383 550.436 764.166 549.904 763.732 549.512C763.298 549.106 762.682 548.903 761.884 548.903C761.1 548.903 760.491 549.106 760.057 549.512C759.623 549.904 759.364 550.394 759.28 550.982H756.949ZM769.46 554.657C769.46 552.235 769.866 550.345 770.678 548.987C771.504 547.615 772.918 546.929 774.92 546.929C776.922 546.929 778.329 547.615 779.141 548.987C779.967 550.345 780.38 552.235 780.38 554.657C780.38 557.107 779.967 559.025 779.141 560.411C778.329 561.783 776.922 562.469 774.92 562.469C772.918 562.469 771.504 561.783 770.678 560.411C769.866 559.025 769.46 557.107 769.46 554.657ZM778.028 554.657C778.028 553.523 777.951 552.564 777.797 551.78C777.657 550.996 777.363 550.359 776.915 549.869C776.467 549.365 775.802 549.113 774.92 549.113C774.038 549.113 773.373 549.365 772.925 549.869C772.477 550.359 772.176 550.996 772.022 551.78C771.882 552.564 771.812 553.523 771.812 554.657C771.812 555.833 771.882 556.82 772.022 557.618C772.162 558.416 772.456 559.06 772.904 559.55C773.366 560.04 774.038 560.285 774.92 560.285C775.802 560.285 776.467 560.04 776.915 559.55C777.377 559.06 777.678 558.416 777.818 557.618C777.958 556.82 778.028 555.833 778.028 554.657Z" fill="#0E4E63"/>
<path d="M624.137 773.309C623.983 772.665 623.703 772.182 623.297 771.86C622.891 771.538 622.324 771.377 621.596 771.377C620.49 771.377 619.664 771.804 619.118 772.658C618.572 773.498 618.285 774.898 618.257 776.858C618.621 776.242 619.153 775.766 619.853 775.43C620.553 775.094 621.309 774.926 622.121 774.926C623.045 774.926 623.857 775.129 624.557 775.535C625.271 775.927 625.824 776.501 626.216 777.257C626.622 778.013 626.825 778.916 626.825 779.966C626.825 780.946 626.629 781.821 626.237 782.591C625.859 783.361 625.292 783.97 624.536 784.418C623.78 784.852 622.87 785.069 621.806 785.069C620.364 785.069 619.23 784.754 618.404 784.124C617.592 783.48 617.018 782.577 616.682 781.415C616.36 780.253 616.199 778.804 616.199 777.068C616.199 771.944 618.005 769.382 621.617 769.382C623.017 769.382 624.116 769.76 624.914 770.516C625.726 771.272 626.202 772.203 626.342 773.309H624.137ZM621.596 776.942C620.742 776.942 620.014 777.201 619.412 777.719C618.824 778.223 618.53 778.958 618.53 779.924C618.53 780.89 618.803 781.66 619.349 782.234C619.909 782.794 620.686 783.074 621.68 783.074C622.562 783.074 623.255 782.801 623.759 782.255C624.277 781.709 624.536 780.981 624.536 780.071C624.536 779.119 624.284 778.363 623.78 777.803C623.29 777.229 622.562 776.942 621.596 776.942ZM629.378 777.215C629.378 774.793 629.784 772.903 630.596 771.545C631.422 770.173 632.836 769.487 634.838 769.487C636.84 769.487 638.247 770.173 639.059 771.545C639.885 772.903 640.298 774.793 640.298 777.215C640.298 779.665 639.885 781.583 639.059 782.969C638.247 784.341 636.84 785.027 634.838 785.027C632.836 785.027 631.422 784.341 630.596 782.969C629.784 781.583 629.378 779.665 629.378 777.215ZM637.946 777.215C637.946 776.081 637.869 775.122 637.715 774.338C637.575 773.554 637.281 772.917 636.833 772.427C636.385 771.923 635.72 771.671 634.838 771.671C633.956 771.671 633.291 771.923 632.843 772.427C632.395 772.917 632.094 773.554 631.94 774.338C631.8 775.122 631.73 776.081 631.73 777.215C631.73 778.391 631.8 779.378 631.94 780.176C632.08 780.974 632.374 781.618 632.822 782.108C633.284 782.598 633.956 782.843 634.838 782.843C635.72 782.843 636.385 782.598 636.833 782.108C637.295 781.618 637.596 780.974 637.736 780.176C637.876 779.378 637.946 778.391 637.946 777.215ZM642.453 773.456C642.453 772.434 642.747 771.636 643.335 771.062C643.937 770.474 644.707 770.18 645.645 770.18C646.583 770.18 647.346 770.474 647.934 771.062C648.536 771.636 648.837 772.434 648.837 773.456C648.837 774.478 648.536 775.283 647.934 775.871C647.346 776.459 646.583 776.753 645.645 776.753C644.707 776.753 643.937 776.459 643.335 775.871C642.747 775.283 642.453 774.478 642.453 773.456ZM655.263 770.453L646.884 785.069H644.532L652.911 770.453H655.263ZM645.645 771.629C644.763 771.629 644.322 772.238 644.322 773.456C644.322 774.688 644.763 775.304 645.645 775.304C646.065 775.304 646.387 775.157 646.611 774.863C646.849 774.555 646.968 774.086 646.968 773.456C646.968 772.238 646.527 771.629 645.645 771.629ZM651 782.045C651 781.023 651.294 780.225 651.882 779.651C652.484 779.063 653.254 778.769 654.192 778.769C655.116 778.769 655.872 779.063 656.46 779.651C657.062 780.225 657.363 781.023 657.363 782.045C657.363 783.067 657.062 783.872 656.46 784.46C655.872 785.048 655.116 785.342 654.192 785.342C653.254 785.342 652.484 785.048 651.882 784.46C651.294 783.872 651 783.067 651 782.045ZM654.171 780.218C653.289 780.218 652.848 780.827 652.848 782.045C652.848 783.263 653.289 783.872 654.171 783.872C655.053 783.872 655.494 783.263 655.494 782.045C655.494 780.827 655.053 780.218 654.171 780.218Z" fill="#0E4E63"/>
<path d="M572.941 647.926V662.521H570.547V656.137H563.68V662.521H561.286V647.926H563.68V654.184H570.547V647.926H572.941ZM586.698 656.452C586.698 656.886 586.67 657.278 586.614 657.628H577.773C577.843 658.552 578.186 659.294 578.802 659.854C579.418 660.414 580.174 660.694 581.07 660.694C582.358 660.694 583.268 660.155 583.8 659.077H586.383C586.033 660.141 585.396 661.016 584.472 661.702C583.562 662.374 582.428 662.71 581.07 662.71C579.964 662.71 578.97 662.465 578.088 661.975C577.22 661.471 576.534 660.771 576.03 659.875C575.54 658.965 575.295 657.915 575.295 656.725C575.295 655.535 575.533 654.492 576.009 653.596C576.499 652.686 577.178 651.986 578.046 651.496C578.928 651.006 579.936 650.761 581.07 650.761C582.162 650.761 583.135 650.999 583.989 651.475C584.843 651.951 585.508 652.623 585.984 653.491C586.46 654.345 586.698 655.332 586.698 656.452ZM584.199 655.696C584.185 654.814 583.87 654.107 583.254 653.575C582.638 653.043 581.875 652.777 580.965 652.777C580.139 652.777 579.432 653.043 578.844 653.575C578.256 654.093 577.906 654.8 577.794 655.696H584.199ZM583.17 647.842L578.529 650.131V648.367L583.17 645.805V647.842ZM603.061 650.761C603.971 650.761 604.783 650.95 605.497 651.328C606.225 651.706 606.792 652.266 607.198 653.008C607.618 653.75 607.828 654.646 607.828 655.696V662.521H605.455V656.053C605.455 655.017 605.196 654.226 604.678 653.68C604.16 653.12 603.453 652.84 602.557 652.84C601.661 652.84 600.947 653.12 600.415 653.68C599.897 654.226 599.638 655.017 599.638 656.053V662.521H597.265V656.053C597.265 655.017 597.006 654.226 596.488 653.68C595.97 653.12 595.263 652.84 594.367 652.84C593.471 652.84 592.757 653.12 592.225 653.68C591.707 654.226 591.448 655.017 591.448 656.053V662.521H589.054V650.95H591.448V652.273C591.84 651.797 592.337 651.426 592.939 651.16C593.541 650.894 594.185 650.761 594.871 650.761C595.795 650.761 596.621 650.957 597.349 651.349C598.077 651.741 598.637 652.308 599.029 653.05C599.379 652.35 599.925 651.797 600.667 651.391C601.409 650.971 602.207 650.761 603.061 650.761ZM610.076 656.683C610.076 655.521 610.314 654.492 610.79 653.596C611.28 652.7 611.938 652.007 612.764 651.517C613.604 651.013 614.528 650.761 615.536 650.761C616.446 650.761 617.237 650.943 617.909 651.307C618.595 651.657 619.141 652.098 619.547 652.63V650.95H621.962V662.521H619.547V660.799C619.141 661.345 618.588 661.8 617.888 662.164C617.188 662.528 616.39 662.71 615.494 662.71C614.5 662.71 613.59 662.458 612.764 661.954C611.938 661.436 611.28 660.722 610.79 659.812C610.314 658.888 610.076 657.845 610.076 656.683ZM619.547 656.725C619.547 655.927 619.379 655.234 619.043 654.646C618.721 654.058 618.294 653.61 617.762 653.302C617.23 652.994 616.656 652.84 616.04 652.84C615.424 652.84 614.85 652.994 614.318 653.302C613.786 653.596 613.352 654.037 613.016 654.625C612.694 655.199 612.533 655.885 612.533 656.683C612.533 657.481 612.694 658.181 613.016 658.783C613.352 659.385 613.786 659.847 614.318 660.169C614.864 660.477 615.438 660.631 616.04 660.631C616.656 660.631 617.23 660.477 617.762 660.169C618.294 659.861 618.721 659.413 619.043 658.825C619.379 658.223 619.547 657.523 619.547 656.725ZM627.899 652.903V659.308C627.899 659.742 627.997 660.057 628.193 660.253C628.403 660.435 628.753 660.526 629.243 660.526H630.713V662.521H628.823C627.745 662.521 626.919 662.269 626.345 661.765C625.771 661.261 625.484 660.442 625.484 659.308V652.903H624.119V650.95H625.484V648.073H627.899V650.95H630.713V652.903H627.899ZM637.939 662.71C636.847 662.71 635.86 662.465 634.978 661.975C634.096 661.471 633.403 660.771 632.899 659.875C632.395 658.965 632.143 657.915 632.143 656.725C632.143 655.549 632.402 654.506 632.92 653.596C633.438 652.686 634.145 651.986 635.041 651.496C635.937 651.006 636.938 650.761 638.044 650.761C639.15 650.761 640.151 651.006 641.047 651.496C641.943 651.986 642.65 652.686 643.168 653.596C643.686 654.506 643.945 655.549 643.945 656.725C643.945 657.901 643.679 658.944 643.147 659.854C642.615 660.764 641.887 661.471 640.963 661.975C640.053 662.465 639.045 662.71 637.939 662.71ZM637.939 660.631C638.555 660.631 639.129 660.484 639.661 660.19C640.207 659.896 640.648 659.455 640.984 658.867C641.32 658.279 641.488 657.565 641.488 656.725C641.488 655.885 641.327 655.178 641.005 654.604C640.683 654.016 640.256 653.575 639.724 653.281C639.192 652.987 638.618 652.84 638.002 652.84C637.386 652.84 636.812 652.987 636.28 653.281C635.762 653.575 635.349 654.016 635.041 654.604C634.733 655.178 634.579 655.885 634.579 656.725C634.579 657.971 634.894 658.937 635.524 659.623C636.168 660.295 636.973 660.631 637.939 660.631ZM648.705 646.981V662.521H646.311V646.981H648.705ZM656.867 662.71C655.775 662.71 654.788 662.465 653.906 661.975C653.024 661.471 652.331 660.771 651.827 659.875C651.323 658.965 651.071 657.915 651.071 656.725C651.071 655.549 651.33 654.506 651.848 653.596C652.366 652.686 653.073 651.986 653.969 651.496C654.865 651.006 655.866 650.761 656.972 650.761C658.078 650.761 659.079 651.006 659.975 651.496C660.871 651.986 661.578 652.686 662.096 653.596C662.614 654.506 662.873 655.549 662.873 656.725C662.873 657.901 662.607 658.944 662.075 659.854C661.543 660.764 660.815 661.471 659.891 661.975C658.981 662.465 657.973 662.71 656.867 662.71ZM656.867 660.631C657.483 660.631 658.057 660.484 658.589 660.19C659.135 659.896 659.576 659.455 659.912 658.867C660.248 658.279 660.416 657.565 660.416 656.725C660.416 655.885 660.255 655.178 659.933 654.604C659.611 654.016 659.184 653.575 658.652 653.281C658.12 652.987 657.546 652.84 656.93 652.84C656.314 652.84 655.74 652.987 655.208 653.281C654.69 653.575 654.277 654.016 653.969 654.604C653.661 655.178 653.507 655.885 653.507 656.725C653.507 657.971 653.822 658.937 654.452 659.623C655.096 660.295 655.901 660.631 656.867 660.631ZM669.902 650.761C670.798 650.761 671.589 650.943 672.275 651.307C672.975 651.657 673.521 652.098 673.913 652.63V650.95H676.328V662.71C676.328 663.774 676.104 664.719 675.656 665.545C675.208 666.385 674.557 667.043 673.703 667.519C672.863 667.995 671.855 668.233 670.679 668.233C669.111 668.233 667.809 667.862 666.773 667.12C665.737 666.392 665.149 665.398 665.009 664.138H667.382C667.564 664.74 667.949 665.223 668.537 665.587C669.139 665.965 669.853 666.154 670.679 666.154C671.645 666.154 672.422 665.86 673.01 665.272C673.612 664.684 673.913 663.83 673.913 662.71V660.778C673.507 661.324 672.954 661.786 672.254 662.164C671.568 662.528 670.784 662.71 669.902 662.71C668.894 662.71 667.97 662.458 667.13 661.954C666.304 661.436 665.646 660.722 665.156 659.812C664.68 658.888 664.442 657.845 664.442 656.683C664.442 655.521 664.68 654.492 665.156 653.596C665.646 652.7 666.304 652.007 667.13 651.517C667.97 651.013 668.894 650.761 669.902 650.761ZM673.913 656.725C673.913 655.927 673.745 655.234 673.409 654.646C673.087 654.058 672.66 653.61 672.128 653.302C671.596 652.994 671.022 652.84 670.406 652.84C669.79 652.84 669.216 652.994 668.684 653.302C668.152 653.596 667.718 654.037 667.382 654.625C667.06 655.199 666.899 655.885 666.899 656.683C666.899 657.481 667.06 658.181 667.382 658.783C667.718 659.385 668.152 659.847 668.684 660.169C669.23 660.477 669.804 660.631 670.406 660.631C671.022 660.631 671.596 660.477 672.128 660.169C672.66 659.861 673.087 659.413 673.409 658.825C673.745 658.223 673.913 657.523 673.913 656.725ZM680.69 649.417C680.256 649.417 679.892 649.27 679.598 648.976C679.304 648.682 679.157 648.318 679.157 647.884C679.157 647.45 679.304 647.086 679.598 646.792C679.892 646.498 680.256 646.351 680.69 646.351C681.11 646.351 681.467 646.498 681.761 646.792C682.055 647.086 682.202 647.45 682.202 647.884C682.202 648.318 682.055 648.682 681.761 648.976C681.467 649.27 681.11 649.417 680.69 649.417ZM681.866 650.95V662.521H679.472V650.95H681.866ZM695.615 656.452C695.615 656.886 695.587 657.278 695.531 657.628H686.69C686.76 658.552 687.103 659.294 687.719 659.854C688.335 660.414 689.091 660.694 689.987 660.694C691.275 660.694 692.185 660.155 692.717 659.077H695.3C694.95 660.141 694.313 661.016 693.389 661.702C692.479 662.374 691.345 662.71 689.987 662.71C688.881 662.71 687.887 662.465 687.005 661.975C686.137 661.471 685.451 660.771 684.947 659.875C684.457 658.965 684.212 657.915 684.212 656.725C684.212 655.535 684.45 654.492 684.926 653.596C685.416 652.686 686.095 651.986 686.963 651.496C687.845 651.006 688.853 650.761 689.987 650.761C691.079 650.761 692.052 650.999 692.906 651.475C693.76 651.951 694.425 652.623 694.901 653.491C695.377 654.345 695.615 655.332 695.615 656.452ZM693.116 655.696C693.102 654.814 692.787 654.107 692.171 653.575C691.555 653.043 690.792 652.777 689.882 652.777C689.056 652.777 688.349 653.043 687.761 653.575C687.173 654.093 686.823 654.8 686.711 655.696H693.116Z" fill="white"/>
<path d="M727.334 778.973C727.334 830.317 685.711 871.94 634.366 871.94C583.021 871.94 541.398 830.317 541.398 778.973C541.398 727.628 583.021 686.005 634.366 686.005C685.711 686.005 727.334 727.628 727.334 778.973ZM559.256 778.973C559.256 820.455 592.884 854.082 634.366 854.082C675.848 854.082 709.476 820.455 709.476 778.973C709.476 737.491 675.848 703.863 634.366 703.863C592.884 703.863 559.256 737.491 559.256 778.973Z" fill="white"/>
<path d="M727.334 778.973C727.334 764.301 723.861 749.838 717.201 736.766C710.54 723.694 700.88 712.383 689.01 703.76C677.141 695.136 663.399 689.444 648.908 687.149C634.418 684.854 619.59 686.022 605.636 690.555C591.683 695.089 579.001 702.861 568.627 713.236C558.253 723.61 550.482 736.292 545.948 750.246C541.415 764.199 540.248 779.027 542.543 793.518C544.839 808.008 550.531 821.75 559.155 833.619L573.602 823.122C566.634 813.533 562.036 802.431 560.181 790.724C558.327 779.017 559.269 767.037 562.932 755.764C566.594 744.49 572.873 734.244 581.254 725.863C589.636 717.481 599.882 711.202 611.155 707.539C622.428 703.876 634.408 702.933 646.115 704.787C657.822 706.641 668.925 711.24 678.514 718.207C688.104 725.174 695.908 734.312 701.289 744.873C706.671 755.434 709.476 767.119 709.476 778.973H727.334Z" fill="#0E4E63"/>
<g filter="url(#filter1_d_311_392)">
<rect x="246" y="259" width="291.581" height="393" rx="39" fill="#3974AA"/>
</g>
<path d="M306.96 338.846L297.856 329.742C296.642 328.528 295.714 327.154 295.071 325.619C294.428 324.083 294.107 322.459 294.107 320.745C294.107 317.175 295.339 314.158 297.802 311.695C300.266 309.232 303.247 308 306.745 308H332.879C336.378 308 339.323 309.25 341.715 311.749C344.107 314.248 345.303 317.247 345.303 320.745C345.303 322.459 344.964 324.119 344.285 325.726C343.607 327.332 342.661 328.743 341.447 329.956L332.665 338.739V362.516L341.661 371.513C342.875 372.727 343.803 374.119 344.446 375.69C345.089 377.261 345.41 378.903 345.41 380.617C345.41 384.258 344.16 387.328 341.661 389.828C339.162 392.327 336.116 393.576 332.523 393.576C330.832 393.576 329.202 393.255 327.631 392.612C326.06 391.97 324.667 391.041 323.454 389.828C322.954 389.328 322.4 388.953 321.794 388.703C321.187 388.453 320.526 388.328 319.812 388.328C319.098 388.328 318.438 388.453 317.831 388.703C317.224 388.953 316.67 389.328 316.171 389.828C314.957 391.041 313.564 391.97 311.994 392.612C310.423 393.255 308.78 393.576 307.067 393.576C303.425 393.576 300.337 392.327 297.802 389.828C295.267 387.328 294 384.258 294 380.617C294 378.903 294.339 377.261 295.017 375.69C295.696 374.119 296.642 372.727 297.856 371.513L306.96 362.623V338.846ZM313.386 337.025V364.444C313.386 364.717 313.314 364.982 313.172 365.238C313.029 365.494 312.886 365.729 312.743 365.943L302.461 376.118C301.89 376.689 301.426 377.383 301.069 378.2C300.712 379.017 300.533 379.861 300.533 380.732C300.533 382.583 301.158 384.133 302.408 385.383C303.657 386.632 305.208 387.257 307.059 387.257C307.93 387.257 308.774 387.079 309.59 386.722C310.407 386.365 311.101 385.9 311.672 385.329C312.743 384.258 313.993 383.437 315.421 382.866C316.849 382.295 318.313 382.009 319.812 382.009C321.312 382.009 322.775 382.295 324.203 382.866C325.631 383.437 326.881 384.258 327.952 385.329C328.523 385.9 329.217 386.365 330.034 386.722C330.851 387.079 331.694 387.257 332.566 387.257C334.417 387.257 335.967 386.632 337.217 385.383C338.466 384.133 339.091 382.583 339.091 380.732C339.091 379.861 338.912 379.017 338.555 378.2C338.198 377.383 337.734 376.689 337.163 376.118L326.881 365.943C326.702 365.729 326.551 365.497 326.426 365.247C326.301 364.997 326.238 364.73 326.238 364.444V337.025C326.238 336.752 326.274 336.487 326.345 336.231C326.417 335.975 326.56 335.74 326.774 335.526L336.949 325.244C337.52 324.673 337.984 323.982 338.341 323.172C338.698 322.362 338.877 321.524 338.877 320.66C338.877 318.932 338.288 317.461 337.109 316.247C335.931 315.033 334.485 314.426 332.772 314.426H306.745C304.972 314.426 303.475 315.033 302.255 316.247C301.036 317.461 300.426 318.955 300.426 320.728C300.426 321.615 300.605 322.447 300.962 323.223C301.319 323.999 301.783 324.673 302.354 325.244L312.743 335.526C312.957 335.704 313.118 335.927 313.225 336.195C313.332 336.463 313.386 336.74 313.386 337.025Z" fill="white"/>
<path d="M477.818 307.382L477.041 311.015H479.813V313.115H476.6L475.76 317H473.471L474.311 313.115H470.195L469.355 317H467.066L467.906 313.115H464.651V311.015H468.347L469.124 307.382H465.89V305.282H469.565L470.384 301.46H472.673L471.854 305.282H475.97L476.789 301.46H479.078L478.259 305.282H481.052V307.382H477.818ZM475.529 307.382H471.413L470.636 311.015H474.752L475.529 307.382ZM484.896 313.745C486.24 312.583 487.297 311.631 488.067 310.889C488.851 310.133 489.502 309.349 490.02 308.537C490.538 307.725 490.797 306.913 490.797 306.101C490.797 305.261 490.594 304.603 490.188 304.127C489.796 303.651 489.173 303.413 488.319 303.413C487.493 303.413 486.849 303.679 486.387 304.211C485.939 304.729 485.701 305.429 485.673 306.311H483.363C483.405 304.715 483.881 303.497 484.791 302.657C485.715 301.803 486.884 301.376 488.298 301.376C489.824 301.376 491.014 301.796 491.868 302.636C492.736 303.476 493.17 304.596 493.17 305.996C493.17 307.004 492.911 307.977 492.393 308.915C491.889 309.839 491.28 310.672 490.566 311.414C489.866 312.142 488.97 312.989 487.878 313.955L486.933 314.795H493.59V316.79H483.384V315.047L484.896 313.745ZM495.4 313.808V312.002L502.456 301.88H505.354V311.729H507.307V313.808H505.354V317H503.002V313.808H495.4ZM503.107 304.316L498.151 311.729H503.107V304.316Z" fill="#203D58"/>
<path d="M352.966 535.808V534.002L360.022 523.88H362.92V533.729H364.873V535.808H362.92V539H360.568V535.808H352.966ZM360.673 526.316L355.717 533.729H360.673V526.316ZM376.559 525.539L370.721 539H368.306L374.207 525.791H366.437V523.754H376.559V525.539ZM378.23 527.387C378.23 526.365 378.524 525.567 379.112 524.993C379.714 524.405 380.484 524.111 381.422 524.111C382.36 524.111 383.123 524.405 383.711 524.993C384.313 525.567 384.614 526.365 384.614 527.387C384.614 528.409 384.313 529.214 383.711 529.802C383.123 530.39 382.36 530.684 381.422 530.684C380.484 530.684 379.714 530.39 379.112 529.802C378.524 529.214 378.23 528.409 378.23 527.387ZM391.04 524.384L382.661 539H380.309L388.688 524.384H391.04ZM381.422 525.56C380.54 525.56 380.099 526.169 380.099 527.387C380.099 528.619 380.54 529.235 381.422 529.235C381.842 529.235 382.164 529.088 382.388 528.794C382.626 528.486 382.745 528.017 382.745 527.387C382.745 526.169 382.304 525.56 381.422 525.56ZM386.777 535.976C386.777 534.954 387.071 534.156 387.659 533.582C388.261 532.994 389.031 532.7 389.969 532.7C390.893 532.7 391.649 532.994 392.237 533.582C392.839 534.156 393.14 534.954 393.14 535.976C393.14 536.998 392.839 537.803 392.237 538.391C391.649 538.979 390.893 539.273 389.969 539.273C389.031 539.273 388.261 538.979 387.659 538.391C387.071 537.803 386.777 536.998 386.777 535.976ZM389.948 534.149C389.066 534.149 388.625 534.758 388.625 535.976C388.625 537.194 389.066 537.803 389.948 537.803C390.83 537.803 391.271 537.194 391.271 535.976C391.271 534.758 390.83 534.149 389.948 534.149Z" fill="#203D58"/>
<path d="M307.374 412.018H301.263L300.213 415H297.714L302.943 400.384H305.715L310.944 415H308.424L307.374 412.018ZM306.702 410.065L304.329 403.282L301.935 410.065H306.702ZM319.056 403.24C319.966 403.24 320.778 403.429 321.492 403.807C322.22 404.185 322.787 404.745 323.193 405.487C323.599 406.229 323.802 407.125 323.802 408.175V415H321.429V408.532C321.429 407.496 321.17 406.705 320.652 406.159C320.134 405.599 319.427 405.319 318.531 405.319C317.635 405.319 316.921 405.599 316.389 406.159C315.871 406.705 315.612 407.496 315.612 408.532V415H313.218V403.429H315.612V404.752C316.004 404.276 316.501 403.905 317.103 403.639C317.719 403.373 318.37 403.24 319.056 403.24ZM326.057 409.162C326.057 408 326.295 406.971 326.771 406.075C327.261 405.179 327.919 404.486 328.745 403.996C329.585 403.492 330.509 403.24 331.517 403.24C332.427 403.24 333.218 403.422 333.89 403.786C334.576 404.136 335.122 404.577 335.528 405.109V403.429H337.943V415H335.528V413.278C335.122 413.824 334.569 414.279 333.869 414.643C333.169 415.007 332.371 415.189 331.475 415.189C330.481 415.189 329.571 414.937 328.745 414.433C327.919 413.915 327.261 413.201 326.771 412.291C326.295 411.367 326.057 410.324 326.057 409.162ZM335.528 409.204C335.528 408.406 335.36 407.713 335.024 407.125C334.702 406.537 334.275 406.089 333.743 405.781C333.211 405.473 332.637 405.319 332.021 405.319C331.405 405.319 330.831 405.473 330.299 405.781C329.767 406.075 329.333 406.516 328.997 407.104C328.675 407.678 328.514 408.364 328.514 409.162C328.514 409.96 328.675 410.66 328.997 411.262C329.333 411.864 329.767 412.326 330.299 412.648C330.845 412.956 331.419 413.11 332.021 413.11C332.637 413.11 333.211 412.956 333.743 412.648C334.275 412.34 334.702 411.892 335.024 411.304C335.36 410.702 335.528 410.002 335.528 409.204ZM343.881 405.382V411.787C343.881 412.221 343.979 412.536 344.175 412.732C344.385 412.914 344.735 413.005 345.225 413.005H346.695V415H344.805C343.727 415 342.901 414.748 342.327 414.244C341.753 413.74 341.466 412.921 341.466 411.787V405.382H340.101V403.429H341.466V400.552H343.881V403.429H346.695V405.382H343.881ZM353.92 415.189C352.828 415.189 351.841 414.944 350.959 414.454C350.077 413.95 349.384 413.25 348.88 412.354C348.376 411.444 348.124 410.394 348.124 409.204C348.124 408.028 348.383 406.985 348.901 406.075C349.419 405.165 350.126 404.465 351.022 403.975C351.918 403.485 352.919 403.24 354.025 403.24C355.131 403.24 356.132 403.485 357.028 403.975C357.924 404.465 358.631 405.165 359.149 406.075C359.667 406.985 359.926 408.028 359.926 409.204C359.926 410.38 359.66 411.423 359.128 412.333C358.596 413.243 357.868 413.95 356.944 414.454C356.034 414.944 355.026 415.189 353.92 415.189ZM353.92 413.11C354.536 413.11 355.11 412.963 355.642 412.669C356.188 412.375 356.629 411.934 356.965 411.346C357.301 410.758 357.469 410.044 357.469 409.204C357.469 408.364 357.308 407.657 356.986 407.083C356.664 406.495 356.237 406.054 355.705 405.76C355.173 405.466 354.599 405.319 353.983 405.319C353.367 405.319 352.793 405.466 352.261 405.76C351.743 406.054 351.33 406.495 351.022 407.083C350.714 407.657 350.56 408.364 350.56 409.204C350.56 410.45 350.875 411.416 351.505 412.102C352.149 412.774 352.954 413.11 353.92 413.11ZM376.3 403.24C377.21 403.24 378.022 403.429 378.736 403.807C379.464 404.185 380.031 404.745 380.437 405.487C380.857 406.229 381.067 407.125 381.067 408.175V415H378.694V408.532C378.694 407.496 378.435 406.705 377.917 406.159C377.399 405.599 376.692 405.319 375.796 405.319C374.9 405.319 374.186 405.599 373.654 406.159C373.136 406.705 372.877 407.496 372.877 408.532V415H370.504V408.532C370.504 407.496 370.245 406.705 369.727 406.159C369.209 405.599 368.502 405.319 367.606 405.319C366.71 405.319 365.996 405.599 365.464 406.159C364.946 406.705 364.687 407.496 364.687 408.532V415H362.293V403.429H364.687V404.752C365.079 404.276 365.576 403.905 366.178 403.639C366.78 403.373 367.424 403.24 368.11 403.24C369.034 403.24 369.86 403.436 370.588 403.828C371.316 404.22 371.876 404.787 372.268 405.529C372.618 404.829 373.164 404.276 373.906 403.87C374.648 403.45 375.446 403.24 376.3 403.24ZM385.331 401.896C384.897 401.896 384.533 401.749 384.239 401.455C383.945 401.161 383.798 400.797 383.798 400.363C383.798 399.929 383.945 399.565 384.239 399.271C384.533 398.977 384.897 398.83 385.331 398.83C385.751 398.83 386.108 398.977 386.402 399.271C386.696 399.565 386.843 399.929 386.843 400.363C386.843 400.797 386.696 401.161 386.402 401.455C386.108 401.749 385.751 401.896 385.331 401.896ZM386.507 403.429V415H384.113V403.429H386.507ZM400.255 408.931C400.255 409.365 400.227 409.757 400.171 410.107H391.33C391.4 411.031 391.743 411.773 392.359 412.333C392.975 412.893 393.731 413.173 394.627 413.173C395.915 413.173 396.825 412.634 397.357 411.556H399.94C399.59 412.62 398.953 413.495 398.029 414.181C397.119 414.853 395.985 415.189 394.627 415.189C393.521 415.189 392.527 414.944 391.645 414.454C390.777 413.95 390.091 413.25 389.587 412.354C389.097 411.444 388.852 410.394 388.852 409.204C388.852 408.014 389.09 406.971 389.566 406.075C390.056 405.165 390.735 404.465 391.603 403.975C392.485 403.485 393.493 403.24 394.627 403.24C395.719 403.24 396.692 403.478 397.546 403.954C398.4 404.43 399.065 405.102 399.541 405.97C400.017 406.824 400.255 407.811 400.255 408.931ZM397.756 408.175C397.742 407.293 397.427 406.586 396.811 406.054C396.195 405.522 395.432 405.256 394.522 405.256C393.696 405.256 392.989 405.522 392.401 406.054C391.813 406.572 391.463 407.279 391.351 408.175H397.756ZM407.436 401.875V399.691H411.804V415H409.389V401.875H407.436Z" fill="white"/>
<path d="M464.334 532.973C464.334 584.318 422.711 625.941 371.366 625.941C320.022 625.941 278.398 584.318 278.398 532.973C278.398 481.628 320.022 440.005 371.366 440.005C422.711 440.005 464.334 481.628 464.334 532.973ZM296.256 532.973C296.256 574.455 329.884 608.083 371.366 608.083C412.848 608.083 446.476 574.455 446.476 532.973C446.476 491.491 412.848 457.863 371.366 457.863C329.884 457.863 296.256 491.491 296.256 532.973Z" fill="white"/>
<path d="M464.334 532.973C464.334 509.781 455.665 487.425 440.029 470.296C424.393 453.167 402.919 442.5 379.823 440.391C356.726 438.281 333.675 444.881 315.195 458.894C296.714 472.907 284.139 493.321 279.937 516.13L297.499 519.365C300.894 500.938 311.054 484.445 325.984 473.123C340.915 461.802 359.538 456.47 378.198 458.174C396.858 459.879 414.207 468.496 426.84 482.335C439.473 496.174 446.476 514.235 446.476 532.973H464.334Z" fill="#203D58"/>
<g filter="url(#filter2_d_311_392)">
<rect x="5" y="10" width="291.581" height="393" rx="39" fill="#7A35AA"/>
</g>
<path d="M59.9954 131.218C58.8529 131.218 57.8532 130.79 56.9963 129.933C56.1394 129.076 55.7109 128.076 55.7109 126.934V82.6604C55.7109 81.5179 56.1394 80.5182 56.9963 79.6613C57.8532 78.8044 58.8529 78.3759 59.9954 78.3759H64.637V74.0914H69.2785V78.3759H93.5573V74.0914H98.1989V78.3759H102.84C103.983 78.3759 104.983 78.8044 105.84 79.6613C106.696 80.5182 107.125 81.5179 107.125 82.6604V126.934C107.125 128.076 106.696 129.076 105.84 129.933C104.983 130.79 103.983 131.218 102.84 131.218H59.9954ZM59.9954 126.934H102.84V82.6604H59.9954V126.934ZM72.8489 126.934V120.364L67.7075 114.366C67.1839 113.842 66.7197 113.128 66.3151 112.223C65.9104 111.319 65.7081 110.272 65.7081 109.081C65.7081 108.463 65.7676 107.856 65.8866 107.261C66.0056 106.666 66.208 106.082 66.4936 105.511C66.2556 104.987 66.0651 104.428 65.9223 103.833C65.7795 103.238 65.7081 102.607 65.7081 101.941C65.7081 100.751 65.9104 99.7032 66.3151 98.7987C66.7197 97.8942 67.1839 97.1801 67.7075 96.6565L72.8489 90.6582V82.6604H77.1334V91.4436C77.1334 91.6817 76.9668 92.1339 76.6336 92.8004L70.9209 99.5128C70.5877 99.8936 70.3496 100.286 70.2068 100.691C70.064 101.096 69.9926 101.512 69.9926 101.941C69.9926 102.893 70.302 103.714 70.9209 104.404C71.5398 105.095 72.3253 105.44 73.2774 105.44C73.7058 105.44 74.1105 105.368 74.4913 105.225C74.8722 105.083 75.2054 104.845 75.491 104.511C76.3003 103.702 77.2167 103.083 78.2403 102.655C79.2638 102.226 80.323 102.012 81.4179 102.012C82.5129 102.012 83.5721 102.226 84.5956 102.655C85.6191 103.083 86.5355 103.702 87.3448 104.511C87.6781 104.845 88.0351 105.083 88.4159 105.225C88.7968 105.368 89.1776 105.44 89.5585 105.44C90.5106 105.44 91.2961 105.095 91.9149 104.404C92.5338 103.714 92.8433 102.917 92.8433 102.012C92.8433 101.584 92.7599 101.167 92.5933 100.762C92.4267 100.358 92.2006 99.965 91.9149 99.5842L86.2023 92.8004C86.0119 92.61 85.8809 92.3958 85.8095 92.1577C85.7381 91.9197 85.7024 91.6817 85.7024 91.4436V82.6604H89.9869V90.6582L95.1997 96.7993C95.8662 97.561 96.3542 98.3822 96.6636 99.2629C96.973 100.144 97.1278 101.06 97.1278 102.012C97.1278 102.631 97.0444 103.238 96.8778 103.833C96.7112 104.428 96.5089 104.987 96.2709 105.511C96.5565 106.082 96.7707 106.666 96.9135 107.261C97.0563 107.856 97.1278 108.463 97.1278 109.081C97.1278 110.272 96.9254 111.319 96.5208 112.223C96.1161 113.128 95.652 113.842 95.1283 114.366L89.9869 120.364V126.934H85.7024V119.579C85.7024 119.293 85.869 118.841 86.2023 118.222L91.9149 111.509C92.2482 111.129 92.4862 110.724 92.629 110.295C92.7718 109.867 92.8433 109.439 92.8433 109.01C92.3196 109.248 91.7959 109.427 91.2723 109.546C90.7486 109.665 90.2011 109.724 89.6299 109.724C88.6778 109.724 87.7257 109.534 86.7735 109.153C85.8214 108.772 84.9883 108.201 84.2743 107.439C83.941 107.058 83.5245 106.773 83.0246 106.582C82.5248 106.392 81.9892 106.297 81.4179 106.297C80.8943 106.297 80.3825 106.392 79.8826 106.582C79.3828 106.773 78.9424 107.058 78.5616 107.439C77.8475 108.201 77.0263 108.772 76.098 109.153C75.1697 109.534 74.2295 109.724 73.2774 109.724C72.7061 109.724 72.1467 109.665 71.5993 109.546C71.0518 109.427 70.5163 109.248 69.9926 109.01C69.9926 109.439 70.064 109.867 70.2068 110.295C70.3496 110.724 70.5877 111.129 70.9209 111.509L76.6336 118.222C76.7764 118.46 76.8954 118.686 76.9906 118.9C77.0858 119.114 77.1334 119.34 77.1334 119.579V126.934H72.8489Z" fill="white"/>
<path d="M236.818 58.382L236.041 62.015H238.813V64.115H235.6L234.76 68H232.471L233.311 64.115H229.195L228.355 68H226.066L226.906 64.115H223.651V62.015H227.347L228.124 58.382H224.89V56.282H228.565L229.384 52.46H231.673L230.854 56.282H234.97L235.789 52.46H238.078L237.259 56.282H240.052V58.382H236.818ZM234.529 58.382H230.413L229.636 62.015H233.752L234.529 58.382ZM252.275 54.539L246.437 68H244.022L249.923 54.791H242.153V52.754H252.275V54.539ZM254.324 60.146C254.324 57.724 254.73 55.834 255.542 54.476C256.368 53.104 257.782 52.418 259.784 52.418C261.786 52.418 263.193 53.104 264.005 54.476C264.831 55.834 265.244 57.724 265.244 60.146C265.244 62.596 264.831 64.514 264.005 65.9C263.193 67.272 261.786 67.958 259.784 67.958C257.782 67.958 256.368 67.272 255.542 65.9C254.73 64.514 254.324 62.596 254.324 60.146ZM262.892 60.146C262.892 59.012 262.815 58.053 262.661 57.269C262.521 56.485 262.227 55.848 261.779 55.358C261.331 54.854 260.666 54.602 259.784 54.602C258.902 54.602 258.237 54.854 257.789 55.358C257.341 55.848 257.04 56.485 256.886 57.269C256.746 58.053 256.676 59.012 256.676 60.146C256.676 61.322 256.746 62.309 256.886 63.107C257.026 63.905 257.32 64.549 257.768 65.039C258.23 65.529 258.902 65.774 259.784 65.774C260.666 65.774 261.331 65.529 261.779 65.039C262.241 64.549 262.542 63.905 262.682 63.107C262.822 62.309 262.892 61.322 262.892 60.146Z" fill="#3E0C61"/>
<path d="M113.583 286.745C114.927 285.583 115.984 284.631 116.754 283.889C117.538 283.133 118.189 282.349 118.707 281.537C119.225 280.725 119.484 279.913 119.484 279.101C119.484 278.261 119.281 277.603 118.875 277.127C118.483 276.651 117.86 276.413 117.006 276.413C116.18 276.413 115.536 276.679 115.074 277.211C114.626 277.729 114.388 278.429 114.36 279.311H112.05C112.092 277.715 112.568 276.497 113.478 275.657C114.402 274.803 115.571 274.376 116.985 274.376C118.511 274.376 119.701 274.796 120.555 275.636C121.423 276.476 121.857 277.596 121.857 278.996C121.857 280.004 121.598 280.977 121.08 281.915C120.576 282.839 119.967 283.672 119.253 284.414C118.553 285.142 117.657 285.989 116.565 286.955L115.62 287.795H122.277V289.79H112.071V288.047L113.583 286.745ZM124.065 276.875V274.691H128.433V290H126.018V276.875H124.065ZM131.344 278.387C131.344 277.365 131.638 276.567 132.226 275.993C132.828 275.405 133.598 275.111 134.536 275.111C135.474 275.111 136.237 275.405 136.825 275.993C137.427 276.567 137.728 277.365 137.728 278.387C137.728 279.409 137.427 280.214 136.825 280.802C136.237 281.39 135.474 281.684 134.536 281.684C133.598 281.684 132.828 281.39 132.226 280.802C131.638 280.214 131.344 279.409 131.344 278.387ZM144.154 275.384L135.775 290H133.423L141.802 275.384H144.154ZM134.536 276.56C133.654 276.56 133.213 277.169 133.213 278.387C133.213 279.619 133.654 280.235 134.536 280.235C134.956 280.235 135.278 280.088 135.502 279.794C135.74 279.486 135.859 279.017 135.859 278.387C135.859 277.169 135.418 276.56 134.536 276.56ZM139.891 286.976C139.891 285.954 140.185 285.156 140.773 284.582C141.375 283.994 142.145 283.7 143.083 283.7C144.007 283.7 144.763 283.994 145.351 284.582C145.953 285.156 146.254 285.954 146.254 286.976C146.254 287.998 145.953 288.803 145.351 289.391C144.763 289.979 144.007 290.273 143.083 290.273C142.145 290.273 141.375 289.979 140.773 289.391C140.185 288.803 139.891 287.998 139.891 286.976ZM143.062 285.149C142.18 285.149 141.739 285.758 141.739 286.976C141.739 288.194 142.18 288.803 143.062 288.803C143.944 288.803 144.385 288.194 144.385 286.976C144.385 285.758 143.944 285.149 143.062 285.149Z" fill="#3E0C61"/>
<path d="M65.156 166L61.796 160.162H59.969V166H57.575V151.405H62.615C63.735 151.405 64.68 151.601 65.45 151.993C66.234 152.385 66.815 152.91 67.193 153.568C67.585 154.226 67.781 154.961 67.781 155.773C67.781 156.725 67.501 157.593 66.941 158.377C66.395 159.147 65.548 159.672 64.4 159.952L68.012 166H65.156ZM59.969 158.251H62.615C63.511 158.251 64.183 158.027 64.631 157.579C65.093 157.131 65.324 156.529 65.324 155.773C65.324 155.017 65.1 154.429 64.652 154.009C64.204 153.575 63.525 153.358 62.615 153.358H59.969V158.251ZM70.0456 160.162C70.0456 159 70.2836 157.971 70.7596 157.075C71.2496 156.179 71.9076 155.486 72.7336 154.996C73.5736 154.492 74.4976 154.24 75.5056 154.24C76.4156 154.24 77.2066 154.422 77.8786 154.786C78.5646 155.136 79.1106 155.577 79.5166 156.109V154.429H81.9316V166H79.5166V164.278C79.1106 164.824 78.5576 165.279 77.8576 165.643C77.1576 166.007 76.3596 166.189 75.4636 166.189C74.4696 166.189 73.5596 165.937 72.7336 165.433C71.9076 164.915 71.2496 164.201 70.7596 163.291C70.2836 162.367 70.0456 161.324 70.0456 160.162ZM79.5166 160.204C79.5166 159.406 79.3486 158.713 79.0126 158.125C78.6906 157.537 78.2636 157.089 77.7316 156.781C77.1996 156.473 76.6256 156.319 76.0096 156.319C75.3936 156.319 74.8196 156.473 74.2876 156.781C73.7556 157.075 73.3216 157.516 72.9856 158.104C72.6636 158.678 72.5026 159.364 72.5026 160.162C72.5026 160.96 72.6636 161.66 72.9856 162.262C73.3216 162.864 73.7556 163.326 74.2876 163.648C74.8336 163.956 75.4076 164.11 76.0096 164.11C76.6256 164.11 77.1996 163.956 77.7316 163.648C78.2636 163.34 78.6906 162.892 79.0126 162.304C79.3486 161.702 79.5166 161.002 79.5166 160.204ZM84.278 160.162C84.278 159 84.516 157.971 84.992 157.075C85.482 156.179 86.14 155.486 86.966 154.996C87.806 154.492 88.737 154.24 89.759 154.24C90.515 154.24 91.257 154.408 91.985 154.744C92.727 155.066 93.315 155.5 93.749 156.046V150.46H96.164V166H93.749V164.257C93.357 164.817 92.811 165.279 92.111 165.643C91.425 166.007 90.634 166.189 89.738 166.189C88.73 166.189 87.806 165.937 86.966 165.433C86.14 164.915 85.482 164.201 84.992 163.291C84.516 162.367 84.278 161.324 84.278 160.162ZM93.749 160.204C93.749 159.406 93.581 158.713 93.245 158.125C92.923 157.537 92.496 157.089 91.964 156.781C91.432 156.473 90.858 156.319 90.242 156.319C89.626 156.319 89.052 156.473 88.52 156.781C87.988 157.075 87.554 157.516 87.218 158.104C86.896 158.678 86.735 159.364 86.735 160.162C86.735 160.96 86.896 161.66 87.218 162.262C87.554 162.864 87.988 163.326 88.52 163.648C89.066 163.956 89.64 164.11 90.242 164.11C90.858 164.11 91.432 163.956 91.964 163.648C92.496 163.34 92.923 162.892 93.245 162.304C93.581 161.702 93.749 161.002 93.749 160.204ZM100.526 152.896C100.092 152.896 99.7284 152.749 99.4344 152.455C99.1404 152.161 98.9934 151.797 98.9934 151.363C98.9934 150.929 99.1404 150.565 99.4344 150.271C99.7284 149.977 100.092 149.83 100.526 149.83C100.946 149.83 101.303 149.977 101.597 150.271C101.891 150.565 102.038 150.929 102.038 151.363C102.038 151.797 101.891 152.161 101.597 152.455C101.303 152.749 100.946 152.896 100.526 152.896ZM101.702 154.429V166H99.3084V154.429H101.702ZM109.865 166.189C108.773 166.189 107.786 165.944 106.904 165.454C106.022 164.95 105.329 164.25 104.825 163.354C104.321 162.444 104.069 161.394 104.069 160.204C104.069 159.028 104.328 157.985 104.846 157.075C105.364 156.165 106.071 155.465 106.967 154.975C107.863 154.485 108.864 154.24 109.97 154.24C111.076 154.24 112.077 154.485 112.973 154.975C113.869 155.465 114.576 156.165 115.094 157.075C115.612 157.985 115.871 159.028 115.871 160.204C115.871 161.38 115.605 162.423 115.073 163.333C114.541 164.243 113.813 164.95 112.889 165.454C111.979 165.944 110.971 166.189 109.865 166.189ZM109.865 164.11C110.481 164.11 111.055 163.963 111.587 163.669C112.133 163.375 112.574 162.934 112.91 162.346C113.246 161.758 113.414 161.044 113.414 160.204C113.414 159.364 113.253 158.657 112.931 158.083C112.609 157.495 112.182 157.054 111.65 156.76C111.118 156.466 110.544 156.319 109.928 156.319C109.312 156.319 108.738 156.466 108.206 156.76C107.688 157.054 107.275 157.495 106.967 158.083C106.659 158.657 106.505 159.364 106.505 160.204C106.505 161.45 106.82 162.416 107.45 163.102C108.094 163.774 108.899 164.11 109.865 164.11ZM120.631 150.46V166H118.237V150.46H120.631ZM128.793 166.189C127.701 166.189 126.714 165.944 125.832 165.454C124.95 164.95 124.257 164.25 123.753 163.354C123.249 162.444 122.997 161.394 122.997 160.204C122.997 159.028 123.256 157.985 123.774 157.075C124.292 156.165 124.999 155.465 125.895 154.975C126.791 154.485 127.792 154.24 128.898 154.24C130.004 154.24 131.005 154.485 131.901 154.975C132.797 155.465 133.504 156.165 134.022 157.075C134.54 157.985 134.799 159.028 134.799 160.204C134.799 161.38 134.533 162.423 134.001 163.333C133.469 164.243 132.741 164.95 131.817 165.454C130.907 165.944 129.899 166.189 128.793 166.189ZM128.793 164.11C129.409 164.11 129.983 163.963 130.515 163.669C131.061 163.375 131.502 162.934 131.838 162.346C132.174 161.758 132.342 161.044 132.342 160.204C132.342 159.364 132.181 158.657 131.859 158.083C131.537 157.495 131.11 157.054 130.578 156.76C130.046 156.466 129.472 156.319 128.856 156.319C128.24 156.319 127.666 156.466 127.134 156.76C126.616 157.054 126.203 157.495 125.895 158.083C125.587 158.657 125.433 159.364 125.433 160.204C125.433 161.45 125.748 162.416 126.378 163.102C127.022 163.774 127.827 164.11 128.793 164.11ZM141.828 154.24C142.724 154.24 143.515 154.422 144.201 154.786C144.901 155.136 145.447 155.577 145.839 156.109V154.429H148.254V166.189C148.254 167.253 148.03 168.198 147.582 169.024C147.134 169.864 146.483 170.522 145.629 170.998C144.789 171.474 143.781 171.712 142.605 171.712C141.037 171.712 139.735 171.341 138.699 170.599C137.663 169.871 137.075 168.877 136.935 167.617H139.308C139.49 168.219 139.875 168.702 140.463 169.066C141.065 169.444 141.779 169.633 142.605 169.633C143.571 169.633 144.348 169.339 144.936 168.751C145.538 168.163 145.839 167.309 145.839 166.189V164.257C145.433 164.803 144.88 165.265 144.18 165.643C143.494 166.007 142.71 166.189 141.828 166.189C140.82 166.189 139.896 165.937 139.056 165.433C138.23 164.915 137.572 164.201 137.082 163.291C136.606 162.367 136.368 161.324 136.368 160.162C136.368 159 136.606 157.971 137.082 157.075C137.572 156.179 138.23 155.486 139.056 154.996C139.896 154.492 140.82 154.24 141.828 154.24ZM145.839 160.204C145.839 159.406 145.671 158.713 145.335 158.125C145.013 157.537 144.586 157.089 144.054 156.781C143.522 156.473 142.948 156.319 142.332 156.319C141.716 156.319 141.142 156.473 140.61 156.781C140.078 157.075 139.644 157.516 139.308 158.104C138.986 158.678 138.825 159.364 138.825 160.162C138.825 160.96 138.986 161.66 139.308 162.262C139.644 162.864 140.078 163.326 140.61 163.648C141.156 163.956 141.73 164.11 142.332 164.11C142.948 164.11 143.522 163.956 144.054 163.648C144.586 163.34 145.013 162.892 145.335 162.304C145.671 161.702 145.839 161.002 145.839 160.204ZM152.616 152.896C152.182 152.896 151.818 152.749 151.524 152.455C151.23 152.161 151.083 151.797 151.083 151.363C151.083 150.929 151.23 150.565 151.524 150.271C151.818 149.977 152.182 149.83 152.616 149.83C153.036 149.83 153.393 149.977 153.687 150.271C153.981 150.565 154.128 150.929 154.128 151.363C154.128 151.797 153.981 152.161 153.687 152.455C153.393 152.749 153.036 152.896 152.616 152.896ZM153.792 154.429V166H151.398V154.429H153.792ZM167.54 159.931C167.54 160.365 167.512 160.757 167.456 161.107H158.615C158.685 162.031 159.028 162.773 159.644 163.333C160.26 163.893 161.016 164.173 161.912 164.173C163.2 164.173 164.11 163.634 164.642 162.556H167.225C166.875 163.62 166.238 164.495 165.314 165.181C164.404 165.853 163.27 166.189 161.912 166.189C160.806 166.189 159.812 165.944 158.93 165.454C158.062 164.95 157.376 164.25 156.872 163.354C156.382 162.444 156.137 161.394 156.137 160.204C156.137 159.014 156.375 157.971 156.851 157.075C157.341 156.165 158.02 155.465 158.888 154.975C159.77 154.485 160.778 154.24 161.912 154.24C163.004 154.24 163.977 154.478 164.831 154.954C165.685 155.43 166.35 156.102 166.826 156.97C167.302 157.824 167.54 158.811 167.54 159.931ZM165.041 159.175C165.027 158.293 164.712 157.586 164.096 157.054C163.48 156.522 162.717 156.256 161.807 156.256C160.981 156.256 160.274 156.522 159.686 157.054C159.098 157.572 158.748 158.279 158.636 159.175H165.041Z" fill="white"/>
<path d="M223.334 283.973C223.334 335.318 181.711 376.941 130.366 376.941C79.0215 376.941 37.3984 335.318 37.3984 283.973C37.3984 232.628 79.0215 191.005 130.366 191.005C181.711 191.005 223.334 232.628 223.334 283.973ZM55.2561 283.973C55.2561 325.455 88.8841 359.083 130.366 359.083C171.848 359.083 205.476 325.455 205.476 283.973C205.476 242.491 171.848 208.863 130.366 208.863C88.8841 208.863 55.2561 242.491 55.2561 283.973Z" fill="white"/>
<path d="M223.334 283.973C223.334 263.277 216.428 243.173 203.711 226.845C190.993 210.518 173.191 198.9 153.125 193.834L148.753 211.148C164.965 215.242 179.348 224.627 189.622 237.819C199.897 251.01 205.476 267.253 205.476 283.973H223.334Z" fill="#3E0C61"/>
<defs>
<filter id="filter0_d_311_392" x="504" y="495" width="337.578" height="438.999" filterUnits="userSpaceOnUse" color-interpolation-filters="sRGB">
<feFlood flood-opacity="0" result="BackgroundImageFix"/>
<feColorMatrix in="SourceAlpha" type="matrix" values="0 0 0 0 0 0 0 0 0 0 0 0 0 0 0 0 0 0 127 0" result="hardAlpha"/>
<feOffset dx="18" dy="13"/>
<feGaussianBlur stdDeviation="11.5"/>
<feComposite in2="hardAlpha" operator="out"/>
<feColorMatrix type="matrix" values="0 0 0 0 0 0 0 0 0 0 0 0 0 0 0 0 0 0 0.25 0"/>
<feBlend mode="normal" in2="BackgroundImageFix" result="effect1_dropShadow_311_392"/>
<feBlend mode="normal" in="SourceGraphic" in2="effect1_dropShadow_311_392" result="shape"/>
</filter>
<filter id="filter1_d_311_392" x="241" y="249" width="337.582" height="439" filterUnits="userSpaceOnUse" color-interpolation-filters="sRGB">
<feFlood flood-opacity="0" result="BackgroundImageFix"/>
<feColorMatrix in="SourceAlpha" type="matrix" values="0 0 0 0 0 0 0 0 0 0 0 0 0 0 0 0 0 0 127 0" result="hardAlpha"/>
<feOffset dx="18" dy="13"/>
<feGaussianBlur stdDeviation="11.5"/>
<feComposite in2="hardAlpha" operator="out"/>
<feColorMatrix type="matrix" values="0 0 0 0 0 0 0 0 0 0 0 0 0 0 0 0 0 0 0.25 0"/>
<feBlend mode="normal" in2="BackgroundImageFix" result="effect1_dropShadow_311_392"/>
<feBlend mode="normal" in="SourceGraphic" in2="effect1_dropShadow_311_392" result="shape"/>
</filter>
<filter id="filter2_d_311_392" x="0" y="0" width="337.582" height="439" filterUnits="userSpaceOnUse" color-interpolation-filters="sRGB">
<feFlood flood-opacity="0" result="BackgroundImageFix"/>
<feColorMatrix in="SourceAlpha" type="matrix" values="0 0 0 0 0 0 0 0 0 0 0 0 0 0 0 0 0 0 127 0" result="hardAlpha"/>
<feOffset dx="18" dy="13"/>
<feGaussianBlur stdDeviation="11.5"/>
<feComposite in2="hardAlpha" operator="out"/>
<feColorMatrix type="matrix" values="0 0 0 0 0 0 0 0 0 0 0 0 0 0 0 0 0 0 0.25 0"/>
<feBlend mode="normal" in2="BackgroundImageFix" result="effect1_dropShadow_311_392"/>
<feBlend mode="normal" in="SourceGraphic" in2="effect1_dropShadow_311_392" result="shape"/>
</filter>
</defs>
</svg>
