<svg width="51" height="43" viewBox="0 0 51 43" fill="none" xmlns="http://www.w3.org/2000/svg">
<path d="M25.5013 8.89577C31.8263 8.89577 36.9596 14.0291 36.9596 20.3541C36.9596 21.5229 36.7305 22.6458 36.4096 23.6999L43.4221 30.7124C46.6075 27.8937 49.1284 24.3645 50.7096 20.3312C46.745 10.2937 36.9596 3.1666 25.5013 3.1666C22.5909 3.1666 19.795 3.62493 17.1596 4.47285L22.1325 9.44577C23.2096 9.12493 24.3326 8.89577 25.5013 8.89577ZM4.21172 1.2416C3.31797 2.13535 3.31797 3.5791 4.21172 4.47285L8.7263 8.98743C5.0138 11.9437 2.05755 15.8395 0.292969 20.3541C4.25755 30.4145 14.043 37.5416 25.5013 37.5416C28.9846 37.5416 32.3075 36.8541 35.3784 35.6624L41.6117 41.8958C42.5055 42.7895 43.9492 42.7895 44.843 41.8958C45.7367 41.002 45.7367 39.5583 44.843 38.6645L7.46589 1.2416C6.57214 0.347852 5.10547 0.347852 4.21172 1.2416ZM25.5013 31.8124C19.1763 31.8124 14.043 26.6791 14.043 20.3541C14.043 18.5895 14.4555 16.9166 15.1659 15.4499L18.7638 19.0478C18.6951 19.4604 18.6263 19.8958 18.6263 20.3541C18.6263 24.1583 21.6971 27.2291 25.5013 27.2291C25.9596 27.2291 26.3721 27.1603 26.8076 27.0687L30.4055 30.6666C28.9159 31.3999 27.2659 31.8124 25.5013 31.8124ZM32.3076 19.5978C31.9638 16.3895 29.443 13.8916 26.2575 13.5478L32.3076 19.5978Z" fill="#38194E" fill-opacity="0.8"/>
</svg>
