<svg width="107" height="107" viewBox="0 0 107 107" fill="none" xmlns="http://www.w3.org/2000/svg">
<path d="M58.6928 12.1512C77.6342 14.5338 92.4657 29.3654 94.8483 48.3069C95.2057 51.3447 97.767 53.5486 100.745 53.5486C100.983 53.5486 101.222 53.5486 101.46 53.4891C104.736 53.0721 107.059 50.0939 106.642 46.8178C103.604 22.4559 84.4841 3.33562 60.1223 0.297823C56.8463 -0.0595649 53.868 2.26346 53.5107 5.53951C53.0937 8.81557 55.4167 11.7938 58.6928 12.1512ZM60.9562 24.7193C57.7993 23.8854 54.5232 25.7915 53.6893 29.008C52.8554 32.2245 54.7615 35.441 57.978 36.2749C64.2322 37.8831 69.1165 42.7674 70.7843 49.0813C71.4991 51.7617 73.8817 53.5486 76.562 53.5486C77.0386 53.5486 77.5746 53.4891 78.0512 53.3699C81.2081 52.536 83.1141 49.26 82.3398 46.103C79.5403 35.5601 71.38 27.3997 60.9562 24.7193ZM96.5161 72.9667L81.3868 71.2393C77.7533 70.8224 74.1795 72.0732 71.6182 74.6345L60.6584 85.5944C43.8017 77.0171 29.9827 63.2577 21.4055 46.3413L32.4249 35.3218C34.9861 32.7606 36.237 29.1867 35.82 25.5532L34.0927 10.5429C33.3779 4.52692 28.3149 0 22.2394 0H11.9347C5.20398 0 -0.39507 5.59908 0.0218808 12.3299C3.17879 63.1981 43.8612 103.821 94.6696 106.978C101.4 107.395 106.999 101.796 106.999 95.0652V84.7605C107.059 78.7445 102.532 73.6815 96.5161 72.9667Z" fill="#7A35AA"/>
</svg>
