<svg width="107" height="119" viewBox="0 0 107 119" fill="none" xmlns="http://www.w3.org/2000/svg">
<path d="M65.3902 41.6111H41.6124C38.343 41.6111 35.668 38.9361 35.668 35.6666C35.668 32.3972 38.343 29.7222 41.6124 29.7222H65.3902C68.6596 29.7222 71.3346 32.3972 71.3346 35.6666C71.3346 38.9361 68.6596 41.6111 65.3902 41.6111Z" fill="#3974AA"/>
<path d="M65.3902 59.4441H41.6124C38.343 59.4441 35.668 56.7691 35.668 53.4996C35.668 50.2302 38.343 47.5552 41.6124 47.5552H65.3902C68.6596 47.5552 71.3346 50.2302 71.3346 53.4996C71.3346 56.7691 68.6596 59.4441 65.3902 59.4441Z" fill="#3974AA"/>
<path d="M83.2257 41.6111C86.5087 41.6111 89.1701 38.9496 89.1701 35.6666C89.1701 32.3836 86.5087 29.7222 83.2257 29.7222C79.9427 29.7222 77.2812 32.3836 77.2812 35.6666C77.2812 38.9496 79.9427 41.6111 83.2257 41.6111Z" fill="#3974AA"/>
<path d="M83.2257 59.4441C86.5087 59.4441 89.1701 56.7826 89.1701 53.4996C89.1701 50.2166 86.5087 47.5552 83.2257 47.5552C79.9427 47.5552 77.2812 50.2166 77.2812 53.4996C77.2812 56.7826 79.9427 59.4441 83.2257 59.4441Z" fill="#3974AA"/>
<path d="M98.0833 8.91667L89.1667 0L80.25 8.91667L71.3333 0L62.4167 8.91667L53.5 0L44.5833 8.91667L35.6667 0L26.75 8.91667L17.8333 0V83.2222H5.94444C2.675 83.2222 0 85.8972 0 89.1667V101.056C0 110.923 7.96556 118.889 17.8333 118.889H89.1667C99.0344 118.889 107 110.923 107 101.056V0L98.0833 8.91667ZM71.3333 107H17.8333C14.5639 107 11.8889 104.325 11.8889 101.056V95.1111H29.7222H53.5H71.3333V107ZM95.1111 101.056C95.1111 104.325 92.4361 107 89.1667 107C85.8972 107 83.2222 104.325 83.2222 101.056V89.1667C83.2222 85.8972 80.5472 83.2222 77.2778 83.2222H65.3889H53.5H29.7222V17.8333H95.1111V101.056Z" fill="#3974AA"/>
</svg>
