<svg width="23" height="32" viewBox="0 0 23 32" fill="none" xmlns="http://www.w3.org/2000/svg">
<rect x="0.5" y="7.5" width="21" height="21" rx="10.5" fill="white" stroke="#919191"/>
<path d="M9.389 23.924C9.389 23.735 9.368 23.651 9.284 23.651L8.801 23.882C8.801 23.777 8.738 23.714 8.633 23.672L8.465 23.651C8.318 23.651 8.255 23.672 8.045 23.798C7.982 23.672 7.898 23.525 7.835 23.399C7.289 22.349 6.722 20.774 6.47 20.081C6.344 19.724 6.218 18.989 6.071 17.876C6.239 17.981 6.365 18.023 6.428 18.023C6.512 18.023 6.617 17.876 6.701 17.582C6.743 17.645 6.827 17.666 6.932 17.666C6.995 17.666 7.079 17.645 7.121 17.582L7.457 17.078L7.835 17.204H7.856C7.898 17.204 7.961 17.141 8.066 17.078C8.171 17.015 8.255 16.973 8.318 16.973L8.381 16.994C8.717 17.162 8.948 17.456 9.053 17.918C9.305 18.989 9.536 19.514 9.809 19.514C10.04 19.514 10.355 19.241 10.691 18.716C11.027 18.191 11.363 17.477 11.741 16.616C11.762 16.784 11.783 16.868 11.825 16.868C11.951 16.868 12.266 16.133 13.043 14.894C14.198 13.025 17.054 9.434 17.789 8.93C18.335 8.552 18.755 8.195 19.049 7.88C19.007 8.09 18.965 8.237 18.965 8.3C18.965 8.363 19.007 8.384 19.049 8.384L19.637 8.09V8.174C19.637 8.279 19.658 8.342 19.721 8.342C19.805 8.342 20.141 8.006 20.183 7.88L20.141 8.174L20.855 7.754L20.687 8.132C20.897 7.985 21.065 7.901 21.17 7.901C21.275 7.901 21.338 8.069 21.338 8.174C21.338 8.342 21.191 8.573 20.96 8.867C20.708 9.203 20.078 9.854 18.188 12.017C17.369 12.941 13.736 17.876 13.043 19.052L11.741 21.257C11.174 22.202 10.817 22.811 10.628 23.042C10.439 23.273 10.208 23.504 9.935 23.714L9.746 23.609L9.578 23.714L9.389 23.924Z" fill="#28AD35"/>
</svg>
